<svg class="main-svg" xmlns="http://www.w3.org/2000/svg" xmlns:xlink="http://www.w3.org/1999/xlink" width="7680" height="4320" style="" viewBox="0 0 7680 4320"><rect x="0" y="0" width="7680" height="4320" style="fill: rgb(255, 255, 255); fill-opacity: 1;"/><defs id="defs-8ca0a4"><g class="clips"><clipPath id="clip8ca0a4xyplot" class="plotclip"><rect width="7520" height="4060"/></clipPath><clipPath class="axesclip" id="clip8ca0a4x"><rect x="80" y="0" width="7520" height="4320"/></clipPath><clipPath class="axesclip" id="clip8ca0a4y"><rect x="0" y="180" width="7680" height="4060"/></clipPath><clipPath class="axesclip" id="clip8ca0a4xy"><rect x="80" y="180" width="7520" height="4060"/></clipPath></g><g class="gradients"/><g class="patterns"/></defs><g class="bglayer"/><g class="layer-below"><g class="imagelayer"/><g class="shapelayer"/></g><g class="cartesianlayer"><g class="subplot xy"><g class="layer-subplot"><g class="shapelayer"/><g class="imagelayer"/></g><g class="minor-gridlayer"><g class="x"/><g class="y"/></g><g class="gridlayer"><g class="x"><path class="xgrid crisp" transform="translate(2149.88,0)" d="M0,180v4060" style="stroke: rgb(238, 238, 238); stroke-opacity: 1; stroke-width: 1px;"/><path class="xgrid crisp" transform="translate(3840,0)" d="M0,180v4060" style="stroke: rgb(238, 238, 238); stroke-opacity: 1; stroke-width: 1px;"/><path class="xgrid crisp" transform="translate(5530.13,0)" d="M0,180v4060" style="stroke: rgb(238, 238, 238); stroke-opacity: 1; stroke-width: 1px;"/><path class="xgrid crisp" transform="translate(7220.25,0)" d="M0,180v4060" style="stroke: rgb(238, 238, 238); stroke-opacity: 1; stroke-width: 1px;"/></g><g class="y"><path class="ygrid crisp" transform="translate(0,3098.25)" d="M80,0h7520" style="stroke: rgb(238, 238, 238); stroke-opacity: 1; stroke-width: 1px;"/><path class="ygrid crisp" transform="translate(0,2163.25)" d="M80,0h7520" style="stroke: rgb(238, 238, 238); stroke-opacity: 1; stroke-width: 1px;"/><path class="ygrid crisp" transform="translate(0,1228.25)" d="M80,0h7520" style="stroke: rgb(238, 238, 238); stroke-opacity: 1; stroke-width: 1px;"/><path class="ygrid crisp" transform="translate(0,293.25)" d="M80,0h7520" style="stroke: rgb(238, 238, 238); stroke-opacity: 1; stroke-width: 1px;"/></g></g><g class="zerolinelayer"><path class="xzl zl crisp" transform="translate(459.75,0)" d="M0,180v4060" style="stroke: rgb(68, 68, 68); stroke-opacity: 1; stroke-width: 1px;"/><path class="yzl zl crisp" transform="translate(0,4033.25)" d="M80,0h7520" style="stroke: rgb(68, 68, 68); stroke-opacity: 1; stroke-width: 1px;"/></g><g class="layer-between"><g class="shapelayer"/><g class="imagelayer"/></g><path class="xlines-below"/><path class="ylines-below"/><g class="overlines-below"/><g class="xaxislayer-below"/><g class="yaxislayer-below"/><g class="overaxes-below"/><g class="overplot"><g class="xy" transform="translate(80,180)" clip-path="url(#clip8ca0a4xyplot)"><g class="scatterlayer mlayer"><g class="trace scatter traceb93228" style="stroke-miterlimit: 2; opacity: 1;"><g class="fills"/><g class="errorbars"/><g class="lines"><path class="js-line" d="M379.75,3853.25L7140.25,3853.25" style="vector-effect: none; fill: none; stroke: rgb(0, 0, 1); stroke-opacity: 1; stroke-width: 6px; opacity: 1;"/></g><g class="points"><path class="point" transform="translate(379.75,3853.25)" d="M3,0A3,3 0 1,1 0,-3A3,3 0 0,1 3,0Z" style="opacity: 1; stroke-width: 0px; fill: rgb(0, 0, 1); fill-opacity: 1;"/><path class="point" transform="translate(2069.88,3853.25)" d="M3,0A3,3 0 1,1 0,-3A3,3 0 0,1 3,0Z" style="opacity: 1; stroke-width: 0px; fill: rgb(0, 0, 1); fill-opacity: 1;"/><path class="point" transform="translate(3760,3853.25)" d="M3,0A3,3 0 1,1 0,-3A3,3 0 0,1 3,0Z" style="opacity: 1; stroke-width: 0px; fill: rgb(0, 0, 1); fill-opacity: 1;"/><path class="point" transform="translate(5450.13,3853.25)" d="M3,0A3,3 0 1,1 0,-3A3,3 0 0,1 3,0Z" style="opacity: 1; stroke-width: 0px; fill: rgb(0, 0, 1); fill-opacity: 1;"/><path class="point" transform="translate(7140.25,3853.25)" d="M3,0A3,3 0 1,1 0,-3A3,3 0 0,1 3,0Z" style="opacity: 1; stroke-width: 0px; fill: rgb(0, 0, 1); fill-opacity: 1;"/></g><g class="text"/></g><g class="trace scatter trace9cd61e" style="stroke-miterlimit: 2; opacity: 1;"><g class="fills"/><g class="errorbars"/><g class="lines"><path class="js-line" d="M379.75,2170.25L2069.88,1983.25L3760,1983.25L5450.13,2824.75L7140.25,2357.25" style="vector-effect: none; fill: none; stroke: rgb(0, 0, 2); stroke-opacity: 1; stroke-width: 6px; opacity: 1;"/></g><g class="points"><path class="point" transform="translate(379.75,2170.25)" d="M3,0A3,3 0 1,1 0,-3A3,3 0 0,1 3,0Z" style="opacity: 1; stroke-width: 0px; fill: rgb(0, 0, 2); fill-opacity: 1;"/><path class="point" transform="translate(2069.88,1983.25)" d="M3,0A3,3 0 1,1 0,-3A3,3 0 0,1 3,0Z" style="opacity: 1; stroke-width: 0px; fill: rgb(0, 0, 2); fill-opacity: 1;"/><path class="point" transform="translate(3760,1983.25)" d="M3,0A3,3 0 1,1 0,-3A3,3 0 0,1 3,0Z" style="opacity: 1; stroke-width: 0px; fill: rgb(0, 0, 2); fill-opacity: 1;"/><path class="point" transform="translate(5450.13,2824.75)" d="M3,0A3,3 0 1,1 0,-3A3,3 0 0,1 3,0Z" style="opacity: 1; stroke-width: 0px; fill: rgb(0, 0, 2); fill-opacity: 1;"/><path class="point" transform="translate(7140.25,2357.25)" d="M3,0A3,3 0 1,1 0,-3A3,3 0 0,1 3,0Z" style="opacity: 1; stroke-width: 0px; fill: rgb(0, 0, 2); fill-opacity: 1;"/></g><g class="text"/></g><g class="trace scatter trace8a5551" style="stroke-miterlimit: 2; opacity: 1;"><g class="fills"/><g class="errorbars"/><g class="lines"><path class="js-line" d="M379.75,1484.58L2069.88,2544.25L3760,1796.25L5450.13,1235.25L7140.25,1796.25" style="vector-effect: none; fill: none; stroke: rgb(0, 0, 3); stroke-opacity: 1; stroke-width: 6px; opacity: 1;"/></g><g class="points"><path class="point" transform="translate(379.75,1484.58)" d="M3,0A3,3 0 1,1 0,-3A3,3 0 0,1 3,0Z" style="opacity: 1; stroke-width: 0px; fill: rgb(0, 0, 3); fill-opacity: 1;"/><path class="point" transform="translate(2069.88,2544.25)" d="M3,0A3,3 0 1,1 0,-3A3,3 0 0,1 3,0Z" style="opacity: 1; stroke-width: 0px; fill: rgb(0, 0, 3); fill-opacity: 1;"/><path class="point" transform="translate(3760,1796.25)" d="M3,0A3,3 0 1,1 0,-3A3,3 0 0,1 3,0Z" style="opacity: 1; stroke-width: 0px; fill: rgb(0, 0, 3); fill-opacity: 1;"/><path class="point" transform="translate(5450.13,1235.25)" d="M3,0A3,3 0 1,1 0,-3A3,3 0 0,1 3,0Z" style="opacity: 1; stroke-width: 0px; fill: rgb(0, 0, 3); fill-opacity: 1;"/><path class="point" transform="translate(7140.25,1796.25)" d="M3,0A3,3 0 1,1 0,-3A3,3 0 0,1 3,0Z" style="opacity: 1; stroke-width: 0px; fill: rgb(0, 0, 3); fill-opacity: 1;"/></g><g class="text"/></g><g class="trace scatter tracea37b38" style="stroke-miterlimit: 2; opacity: 1;"><g class="fills"/><g class="errorbars"/><g class="lines"><path class="js-line" d="M379.75,1796.25L2069.88,1796.25L3760,1515.75L5450.13,954.75L7140.25,206.75" style="vector-effect: none; fill: none; stroke: rgb(0, 0, 4); stroke-opacity: 1; stroke-width: 6px; opacity: 1;"/></g><g class="points"><path class="point" transform="translate(379.75,1796.25)" d="M3,0A3,3 0 1,1 0,-3A3,3 0 0,1 3,0Z" style="opacity: 1; stroke-width: 0px; fill: rgb(0, 0, 4); fill-opacity: 1;"/><path class="point" transform="translate(2069.88,1796.25)" d="M3,0A3,3 0 1,1 0,-3A3,3 0 0,1 3,0Z" style="opacity: 1; stroke-width: 0px; fill: rgb(0, 0, 4); fill-opacity: 1;"/><path class="point" transform="translate(3760,1515.75)" d="M3,0A3,3 0 1,1 0,-3A3,3 0 0,1 3,0Z" style="opacity: 1; stroke-width: 0px; fill: rgb(0, 0, 4); fill-opacity: 1;"/><path class="point" transform="translate(5450.13,954.75)" d="M3,0A3,3 0 1,1 0,-3A3,3 0 0,1 3,0Z" style="opacity: 1; stroke-width: 0px; fill: rgb(0, 0, 4); fill-opacity: 1;"/><path class="point" transform="translate(7140.25,206.75)" d="M3,0A3,3 0 1,1 0,-3A3,3 0 0,1 3,0Z" style="opacity: 1; stroke-width: 0px; fill: rgb(0, 0, 4); fill-opacity: 1;"/></g><g class="text"/></g><g class="trace scatter trace695ff4" style="stroke-miterlimit: 2; opacity: 1;"><g class="fills"/><g class="errorbars"/><g class="lines"><path class="js-line" d="M379.75,2170.25L2069.88,2357.25L3760,1889.75L5450.13,1702.75L7140.25,2824.75" style="vector-effect: none; fill: none; stroke: rgb(0, 0, 5); stroke-opacity: 1; stroke-width: 6px; opacity: 1;"/></g><g class="points"><path class="point" transform="translate(379.75,2170.25)" d="M3,0A3,3 0 1,1 0,-3A3,3 0 0,1 3,0Z" style="opacity: 1; stroke-width: 0px; fill: rgb(0, 0, 5); fill-opacity: 1;"/><path class="point" transform="translate(2069.88,2357.25)" d="M3,0A3,3 0 1,1 0,-3A3,3 0 0,1 3,0Z" style="opacity: 1; stroke-width: 0px; fill: rgb(0, 0, 5); fill-opacity: 1;"/><path class="point" transform="translate(3760,1889.75)" d="M3,0A3,3 0 1,1 0,-3A3,3 0 0,1 3,0Z" style="opacity: 1; stroke-width: 0px; fill: rgb(0, 0, 5); fill-opacity: 1;"/><path class="point" transform="translate(5450.13,1702.75)" d="M3,0A3,3 0 1,1 0,-3A3,3 0 0,1 3,0Z" style="opacity: 1; stroke-width: 0px; fill: rgb(0, 0, 5); fill-opacity: 1;"/><path class="point" transform="translate(7140.25,2824.75)" d="M3,0A3,3 0 1,1 0,-3A3,3 0 0,1 3,0Z" style="opacity: 1; stroke-width: 0px; fill: rgb(0, 0, 5); fill-opacity: 1;"/></g><g class="text"/></g></g></g></g><path class="xlines-above crisp" d="M0,0" style="fill: none;"/><path class="ylines-above crisp" d="M0,0" style="fill: none;"/><g class="overlines-above"/><g class="xaxislayer-above"><g class="xtick"><text text-anchor="middle" x="0" y="4277" transform="translate(459.75,0)" style="font-family: 'Open Sans', verdana, arial, sans-serif; font-size: 36px; fill: rgb(68, 68, 68); fill-opacity: 1; white-space: pre; opacity: 1;">0</text></g><g class="xtick"><text text-anchor="middle" x="0" y="4277" style="font-family: 'Open Sans', verdana, arial, sans-serif; font-size: 36px; fill: rgb(68, 68, 68); fill-opacity: 1; white-space: pre; opacity: 1;" transform="translate(2149.88,0)">50</text></g><g class="xtick"><text text-anchor="middle" x="0" y="4277" style="font-family: 'Open Sans', verdana, arial, sans-serif; font-size: 36px; fill: rgb(68, 68, 68); fill-opacity: 1; white-space: pre; opacity: 1;" transform="translate(3840,0)">100</text></g><g class="xtick"><text text-anchor="middle" x="0" y="4277" style="font-family: 'Open Sans', verdana, arial, sans-serif; font-size: 36px; fill: rgb(68, 68, 68); fill-opacity: 1; white-space: pre; opacity: 1;" transform="translate(5530.13,0)">150</text></g><g class="xtick"><text text-anchor="middle" x="0" y="4277" style="font-family: 'Open Sans', verdana, arial, sans-serif; font-size: 36px; fill: rgb(68, 68, 68); fill-opacity: 1; white-space: pre; opacity: 1;" transform="translate(7220.25,0)">200</text></g></g><g class="yaxislayer-above"><g class="ytick"><text text-anchor="end" x="79" y="12.6" transform="translate(0,4033.25)" style="font-family: 'Open Sans', verdana, arial, sans-serif; font-size: 36px; fill: rgb(68, 68, 68); fill-opacity: 1; white-space: pre; opacity: 1;">0</text></g><g class="ytick"><text text-anchor="end" x="79" y="12.6" style="font-family: 'Open Sans', verdana, arial, sans-serif; font-size: 36px; fill: rgb(68, 68, 68); fill-opacity: 1; white-space: pre; opacity: 1;" transform="translate(0,3098.25)">5</text></g><g class="ytick"><text text-anchor="end" x="79" y="12.6" style="font-family: 'Open Sans', verdana, arial, sans-serif; font-size: 36px; fill: rgb(68, 68, 68); fill-opacity: 1; white-space: pre; opacity: 1;" transform="translate(0,2163.25)">10</text></g><g class="ytick"><text text-anchor="end" x="79" y="12.6" style="font-family: 'Open Sans', verdana, arial, sans-serif; font-size: 36px; fill: rgb(68, 68, 68); fill-opacity: 1; white-space: pre; opacity: 1;" transform="translate(0,1228.25)">15</text></g><g class="ytick"><text text-anchor="end" x="79" y="12.6" style="font-family: 'Open Sans', verdana, arial, sans-serif; font-size: 36px; fill: rgb(68, 68, 68); fill-opacity: 1; white-space: pre; opacity: 1;" transform="translate(0,293.25)">20</text></g></g><g class="overaxes-above"/></g></g><g class="polarlayer"/><g class="smithlayer"/><g class="ternarylayer"/><g class="geolayer"/><g class="funnelarealayer"/><g class="pielayer"/><g class="iciclelayer"/><g class="treemaplayer"/><g class="sunburstlayer"/><g class="glimages"/><defs id="topdefs-8ca0a4"><g class="clips"/><clipPath id="legend8ca0a4"><rect width="2576" height="60" x="0" y="0"/></clipPath></defs><g class="layer-above"><g class="imagelayer"/><g class="shapelayer"/></g><g class="infolayer"><g class="legend" pointer-events="all" transform="translate(2552,38.799999999999926)"><rect class="bg" shape-rendering="crispEdges" style="stroke: rgb(68, 68, 68); stroke-opacity: 1; fill: rgb(255, 255, 255); fill-opacity: 1; stroke-width: 0px;" width="2576" height="60" x="0" y="0"/><g class="scrollbox" transform="" clip-path="url(#legend8ca0a4)"><g class="groups"><g class="traces" transform="translate(0,29.900000000000002)" style="opacity: 1;"><text class="legendtext" text-anchor="start" x="40" y="14.040000000000001" style="font-family: 'Open Sans', verdana, arial, sans-serif; font-size: 36px; fill: rgb(68, 68, 68); fill-opacity: 1; white-space: pre;">Player &#60;world></text><g class="layers" style="opacity: 1;"><g class="legendfill"/><g class="legendlines"><path class="js-line" d="M5,0h30" style="fill: none; stroke: rgb(0, 0, 1); stroke-opacity: 1; stroke-width: 6px;"/></g><g class="legendsymbols"><g class="legendpoints"><path class="scatterpts" transform="translate(20,0)" d="M3,0A3,3 0 1,1 0,-3A3,3 0 0,1 3,0Z" style="opacity: 1; stroke-width: 0px; fill: rgb(0, 0, 1); fill-opacity: 1;"/></g></g></g><rect class="legendtoggle" x="0" y="-24.900000000000002" width="325.421875" height="49.800000000000004" style="fill: rgb(0, 0, 0); fill-opacity: 0;"/></g><g class="traces" transform="translate(327.921875,29.900000000000002)" style="opacity: 1;"><text class="legendtext" text-anchor="start" x="40" y="14.040000000000001" style="font-family: 'Open Sans', verdana, arial, sans-serif; font-size: 36px; fill: rgb(68, 68, 68); fill-opacity: 1; white-space: pre;">Player Player_138.25.249.38</text><g class="layers" style="opacity: 1;"><g class="legendfill"/><g class="legendlines"><path class="js-line" d="M5,0h30" style="fill: none; stroke: rgb(0, 0, 2); stroke-opacity: 1; stroke-width: 6px;"/></g><g class="legendsymbols"><g class="legendpoints"><path class="scatterpts" transform="translate(20,0)" d="M3,0A3,3 0 1,1 0,-3A3,3 0 0,1 3,0Z" style="opacity: 1; stroke-width: 0px; fill: rgb(0, 0, 2); fill-opacity: 1;"/></g></g></g><rect class="legendtoggle" x="0" y="-24.900000000000002" width="559.375" height="49.800000000000004" style="fill: rgb(0, 0, 0); fill-opacity: 0;"/></g><g class="traces" transform="translate(889.796875,29.900000000000002)" style="opacity: 1;"><text class="legendtext" text-anchor="start" x="40" y="14.040000000000001" style="font-family: 'Open Sans', verdana, arial, sans-serif; font-size: 36px; fill: rgb(68, 68, 68); fill-opacity: 1; white-space: pre;">Player Player_138.25.249.81</text><g class="layers" style="opacity: 1;"><g class="legendfill"/><g class="legendlines"><path class="js-line" d="M5,0h30" style="fill: none; stroke: rgb(0, 0, 3); stroke-opacity: 1; stroke-width: 6px;"/></g><g class="legendsymbols"><g class="legendpoints"><path class="scatterpts" transform="translate(20,0)" d="M3,0A3,3 0 1,1 0,-3A3,3 0 0,1 3,0Z" style="opacity: 1; stroke-width: 0px; fill: rgb(0, 0, 3); fill-opacity: 1;"/></g></g></g><rect class="legendtoggle" x="0" y="-24.900000000000002" width="559.375" height="49.800000000000004" style="fill: rgb(0, 0, 0); fill-opacity: 0;"/></g><g class="traces" transform="translate(1451.671875,29.900000000000002)" style="opacity: 1;"><text class="legendtext" text-anchor="start" x="40" y="14.040000000000001" style="font-family: 'Open Sans', verdana, arial, sans-serif; font-size: 36px; fill: rgb(68, 68, 68); fill-opacity: 1; white-space: pre;">Player Player_138.25.249.93</text><g class="layers" style="opacity: 1;"><g class="legendfill"/><g class="legendlines"><path class="js-line" d="M5,0h30" style="fill: none; stroke: rgb(0, 0, 4); stroke-opacity: 1; stroke-width: 6px;"/></g><g class="legendsymbols"><g class="legendpoints"><path class="scatterpts" transform="translate(20,0)" d="M3,0A3,3 0 1,1 0,-3A3,3 0 0,1 3,0Z" style="opacity: 1; stroke-width: 0px; fill: rgb(0, 0, 4); fill-opacity: 1;"/></g></g></g><rect class="legendtoggle" x="0" y="-24.900000000000002" width="559.375" height="49.800000000000004" style="fill: rgb(0, 0, 0); fill-opacity: 0;"/></g><g class="traces" transform="translate(2013.546875,29.900000000000002)" style="opacity: 1;"><text class="legendtext" text-anchor="start" x="40" y="14.040000000000001" style="font-family: 'Open Sans', verdana, arial, sans-serif; font-size: 36px; fill: rgb(68, 68, 68); fill-opacity: 1; white-space: pre;">Player Player_138.25.249.94</text><g class="layers" style="opacity: 1;"><g class="legendfill"/><g class="legendlines"><path class="js-line" d="M5,0h30" style="fill: none; stroke: rgb(0, 0, 5); stroke-opacity: 1; stroke-width: 6px;"/></g><g class="legendsymbols"><g class="legendpoints"><path class="scatterpts" transform="translate(20,0)" d="M3,0A3,3 0 1,1 0,-3A3,3 0 0,1 3,0Z" style="opacity: 1; stroke-width: 0px; fill: rgb(0, 0, 5); fill-opacity: 1;"/></g></g></g><rect class="legendtoggle" x="0" y="-24.900000000000002" width="559.375" height="49.800000000000004" style="fill: rgb(0, 0, 0); fill-opacity: 0;"/></g></g></g><rect class="scrollbar" rx="20" ry="3" width="0" height="0" style="fill: rgb(128, 139, 164); fill-opacity: 1;" x="0" y="0"/></g><g class="g-gtitle"><text class="gtitle" x="3840" y="216" text-anchor="middle" dy="0.7em" style="opacity: 1; font-family: 'Open Sans', verdana, arial, sans-serif; font-size: 48px; fill: rgb(68, 68, 68); fill-opacity: 1; white-space: pre;">Players' Mean Scores vs Latency</text></g><g class="g-xtitle" transform="translate(0,-46)"><text class="xtitle" x="3840" y="4358" text-anchor="middle" style="opacity: 1; font-family: 'Open Sans', verdana, arial, sans-serif; font-size: 36px; fill: rgb(68, 68, 68); fill-opacity: 1; white-space: pre;">Latency</text></g><g class="g-ytitle" transform="translate(35,0)"><text class="ytitle" transform="rotate(-90,-2,2210)" x="-2" y="2210" text-anchor="middle" style="opacity: 1; font-family: 'Open Sans', verdana, arial, sans-serif; font-size: 36px; fill: rgb(68, 68, 68); fill-opacity: 1; white-space: pre;">Mean Score</text></g></g></svg>